# xmcd
#
# Track frame offsets:
#	150
#	14187
#	28967
#	43679
#	57710
#	73164
#	88353
#	103188
#	117420
#	131108
#
# Disc length: 1948 seconds
#
# Revision: 0
# Processed by: cddbd v1.5.2PL0 Copyright (c) Steve Scherf et al.
# Submitted via: EasyCDDAExtractor 16.0.6.1
#
DISCID=a5079a0a
DTITLE=Συλλογικός δίσκος - Λαϊκό τραγούδι 1954-1967, 1958-4
DYEAR=2008
DGENRE=Λαϊκή
TTITLE0=Καζαντζίδης Στέλιος - Μαύρισε ο ουρανός [Βασίλης Τσιτσάνης]
TTITLE1=Καζαντζίδης Στέλιος - Με κυνηγούν οι νόμοι [Μπάμπης Μπακάλης-Κώστας Βί
TTITLE1=ρβος]
TTITLE2=Καζαντζίδης Στέλιος - Τι να την κάνω την ομορφιά σου [Γιώργος Μητσάκης
TTITLE2=]
TTITLE3=Δούκισσα-Ευσταθίου Δημήτρης - Οι άντρες [Γιώργος Μητσάκης]
TTITLE4=Περπινιάδης Βαγγέλης - Άδικα, άδικα [Τάκης Λαβίδας]
TTITLE5=Καζαντζίδης Στέλιος - Πολλές μαννάδες κλάψανε [Γιάν. Τατασσόπουλος-Νίκ
TTITLE5=ος Ρούτσος]
TTITLE6=Γκρέϋ Καίτη - Ομορφοπαλλήκαρό μου [Βασίλης Τσιτσάνης-Δημήτρης Γκούτης]
TTITLE7=Γαβαλάς Πάνος - Τώρα που τό 'χεις δίπορτο [Πάνος Γαβαλάς-Οδυσσέας Μοσχ
TTITLE7=ονάς]
TTITLE8=Γκρέϋ Καίτη - Αγάπη που σκοτώνει [Γιώργος Μητσάκης]
TTITLE9=Τσαουσάκης Πρόδρομος - Θέλω τα μάτια μου να κλείσω [Θεόδωρος Δερβενιώτ
TTITLE9=ης]
EXTD=
EXTT0=
EXTT1=
EXTT2=
EXTT3=
EXTT4=
EXTT5=
EXTT6=
EXTT7=
EXTT8=
EXTT9=
PLAYORDER=
